<svg width="41" height="22" viewBox="0 0 41 22" fill="none" xmlns="http://www.w3.org/2000/svg">
<path fill-rule="evenodd" clip-rule="evenodd" d="M33.0429 0.292893C33.4334 -0.097631 34.0666 -0.097631 34.4571 0.292893L40.4571 6.29289C40.7431 6.57888 40.8286 7.009 40.6739 7.38268C40.5191 7.75635 40.1544 7.99999 39.75 7.99999H1.75001C1.19773 7.99999 0.750015 7.55228 0.750015 6.99999C0.750015 6.44771 1.19773 5.99999 1.75001 5.99999H24.5429H37.3358L33.0429 1.70711C32.6524 1.31658 32.6524 0.683417 33.0429 0.292893Z" fill="white"/>
<path opacity="0.6" fill-rule="evenodd" clip-rule="evenodd" d="M8.45712 21.7071C8.0666 22.0976 7.43343 22.0976 7.04291 21.7071L1.04291 15.7071C0.756912 15.4211 0.671352 14.991 0.826134 14.6173C0.980915 14.2436 1.34555 14 1.75002 14L39.75 14C40.3023 14 40.75 14.4477 40.75 15C40.75 15.5523 40.3023 16 39.75 16L4.16423 16L8.45712 20.2929C8.84765 20.6834 8.84765 21.3166 8.45712 21.7071Z" fill="white"/>
</svg>
