<svg width="49" height="24" viewBox="0 0 49 24" fill="none" xmlns="http://www.w3.org/2000/svg">
<path fill-rule="evenodd" clip-rule="evenodd" d="M6.43391 0.267751C4.61141 1.02537 2.92947 3.87485 1.92147 7.9128C1.23065 10.6812 0.573004 18.1256 0.875638 19.7526C1.1387 21.1671 1.7847 21.4536 4.71123 21.4536H6.87476V20.4005C6.87476 19.2097 7.52543 17.4294 8.26804 16.5877C9.07788 15.6702 10.8396 14.8941 12.1126 14.8941C13.3857 14.8941 15.1474 15.6702 15.9573 16.5877C16.6999 17.4294 17.3505 19.2097 17.3505 20.4005V21.4536H24.2677H31.185L31.5109 19.6966C31.9066 17.5635 32.7799 16.2809 34.3754 15.4896C36.6196 14.3765 38.8983 14.8569 40.5576 16.7931C41.5216 17.9181 41.7253 18.4607 41.8609 20.261L41.9395 21.3045L44.8684 21.3889C47.3939 21.4616 47.8633 21.3987 48.2753 20.9318C48.694 20.4581 48.7589 19.2967 48.7959 11.6046C48.8218 6.18259 48.7234 2.51973 48.5387 2.03791C48.374 1.60856 47.8845 0.971402 47.4509 0.621663C46.6632 -0.0131128 46.6425 -0.0137092 26.8413 0.00507468C15.9398 0.0155102 6.75633 0.133879 6.43391 0.267751ZM46.1385 2.29701C46.6344 2.70996 46.8008 3.26214 46.9379 4.94792C47.0331 6.11878 47.0252 7.4268 46.9204 7.85495L46.7298 8.63284H41.934H37.1381V5.40291C37.1381 3.62619 37.2254 2.08323 37.3322 1.9741C37.4387 1.86468 39.3229 1.77523 41.5193 1.77523C44.8899 1.77523 45.6101 1.85663 46.1385 2.29701ZM15.0226 5.35312C15.0226 7.92621 14.937 8.63284 14.6251 8.63284C13.7076 8.63284 10.0207 10.8893 7.31387 13.1079C5.71457 14.4183 4.1563 15.4905 3.85076 15.4905C3.33075 15.4905 3.30689 15.3131 3.47712 12.7325C3.66307 9.91611 4.48774 6.31497 5.32842 4.64977C5.58624 4.13872 6.18453 3.3501 6.65768 2.8969C7.50535 2.08591 7.57489 2.07339 11.2705 2.07339H15.0226V5.35312ZM25.4355 5.27858L25.3529 8.48377L20.9152 8.56606L16.4776 8.64835V5.36087V2.07339H20.9978H25.5181L25.4355 5.27858ZM35.9113 5.27858L35.8286 8.48377L31.391 8.56606L26.9533 8.64835V5.36087V2.07339H31.4736H35.9939L35.9113 5.27858ZM10.4537 16.8691C7.48323 18.3698 7.92816 22.7682 11.1608 23.8615C12.4109 24.2843 14.3102 23.6158 15.1262 22.4661C16.4179 20.6456 15.787 17.9318 13.8339 16.9073C12.6117 16.266 11.6686 16.2552 10.4537 16.8691ZM34.917 16.9568C33.5726 17.7967 33.0642 18.7153 33.0642 20.3045C33.0642 23.9313 37.6989 25.3854 39.6735 22.3785C40.88 20.5418 40.4391 18.3218 38.6187 17.0647C37.4183 16.2361 36.1304 16.1986 34.917 16.9568Z" fill="white"/>
</svg>
