<svg width="35" height="32" viewBox="0 0 35 32" fill="none" xmlns="http://www.w3.org/2000/svg">
<path d="M7.54863 24.72C6.60854 24.7265 5.67661 24.5453 4.80741 24.1871C3.93821 23.829 3.14922 23.3009 2.48663 22.634C1.59047 21.7286 0.990636 20.5721 0.766626 19.318V19.308C0.710871 18.9982 0.677451 18.6847 0.666626 18.37C0.67302 17.4545 0.880141 16.5516 1.27339 15.7248C1.66663 14.8981 2.23644 14.1677 2.94263 13.585C3.84973 12.8312 4.93033 12.3152 6.08682 12.0837C7.24331 11.8522 8.43925 11.9125 9.56663 12.259C10.454 12.4926 11.2814 12.9126 11.9936 13.491C13.152 14.3656 13.9585 15.6266 14.2666 17.045V17.07C14.3242 17.4854 14.3576 17.9038 14.3666 18.323C14.357 18.947 14.2717 19.5676 14.1126 20.171C13.7444 21.3027 13.0606 22.3057 12.1416 23.062C10.8554 24.1414 9.22771 24.729 7.54863 24.72ZM7.54863 15.148C6.67813 15.1202 5.83212 15.4387 5.19609 16.0337C4.56005 16.6287 4.18589 17.4516 4.15563 18.322C4.1859 19.1916 4.55934 20.0139 5.19425 20.6089C5.82917 21.2039 6.67388 21.5232 7.54363 21.497C8.41354 21.5235 9.25851 21.2042 9.89364 20.6092C10.5288 20.0142 10.9024 19.1918 10.9326 18.322C10.9029 17.4519 10.5295 16.629 9.89433 16.0335C9.25914 15.4381 8.41387 15.1186 7.54363 15.145L7.54863 15.148Z" fill="white"/>
<path opacity="0.6" d="M23.2896 22.539H23.0256C19.4256 22.52 17.0546 21.819 16.4996 20.887V20.882V23.725C16.4996 24.815 19.4836 25.668 23.2256 25.668C26.9676 25.668 30.0026 24.815 30.0026 23.725V20.597C30.0006 21.628 26.9306 22.52 23.2896 22.539Z" fill="white"/>
<path opacity="0.5" d="M23.1726 19.413C19.5826 19.413 16.9026 18.655 16.4966 17.708V20.882C17.0526 21.829 19.4806 22.54 23.1726 22.54C26.8646 22.54 30.0006 21.64 30.0006 20.598V17.566C29.7496 18.607 26.7636 19.413 23.1726 19.413Z" fill="white"/>
<path d="M29.9996 17.566C29.7466 18.608 26.7626 19.414 23.1716 19.414C19.5806 19.414 16.9006 18.656 23.1716 12.738C29.4426 6.82002 21.4666 12.738 23.5716 13.138C25.6766 13.538 23.5716 13.138 24.5716 13.087C25.5716 13.036 24.3346 13.087 24.3346 13.087C24.3346 13.087 24.6886 12.139 27.5206 11.381C30.3526 10.623 34.1456 9.62803 27.5206 11.481C29.3184 11.4699 31.1078 11.7253 32.8306 12.239C33.7916 12.571 34.3476 12.997 34.3476 13.471V13.566L29.9996 17.566Z" fill="white"/>
<path d="M23.0706 9.321C22.4636 10.221 19.4796 10.884 16.1926 10.884C12.9056 10.884 9.66861 10.079 9.46661 9.084C9.44756 9.06599 9.43302 9.04376 9.42416 9.01909C9.4153 8.99442 9.41238 8.96801 9.41562 8.942C9.41562 7.9 12.4506 7 16.1926 7C19.0756 7 21.7056 7.52101 22.7166 8.27901C22.8442 8.33952 22.9536 8.43273 23.0335 8.54918C23.1134 8.66563 23.1611 8.80116 23.1716 8.942C23.1821 9.00872 23.1785 9.07688 23.1611 9.14214C23.1437 9.20739 23.1129 9.26831 23.0706 9.321Z" fill="white"/>
<path opacity="0.4" d="M16.1926 10.885C13.0606 10.885 9.97563 10.154 9.51663 9.224V12.244L9.56763 12.259C10.4554 12.4922 11.2832 12.9122 11.9956 13.491C12.0356 13.522 12.0746 13.554 12.1136 13.591C13.454 13.8815 14.8222 14.0244 16.1936 14.017C19.7846 14.017 22.8696 13.117 23.0716 12.075V9.327C22.4676 10.222 19.4796 10.885 16.1926 10.885Z" fill="white"/>
<path opacity="0.5" d="M22.9406 12.358C22.6714 12.6728 22.3276 12.9152 21.9406 13.063C21.6781 13.1789 21.409 13.2791 21.1346 13.363C20.7281 13.4879 20.3151 13.5911 19.8976 13.672C19.5376 13.743 19.1566 13.804 18.7576 13.855C18.5576 13.8804 18.3539 13.9027 18.1466 13.922C17.5246 13.98 16.8696 14.012 16.1956 14.012C14.8241 14.0194 13.456 13.8766 12.1156 13.586C13.2117 14.4558 13.974 15.6772 14.2736 17.044L16.1956 17.136L16.4486 17.231C16.8026 16.284 19.6346 15.525 23.0736 15.478V12.067C23.0511 12.1726 23.0057 12.2719 22.9406 12.358Z" fill="white"/>
<path opacity="0.6" d="M16.4456 17.47V17.233C16.4516 17.218 16.4596 17.202 16.4666 17.187C16.4596 17.202 16.4516 17.217 16.4456 17.233L16.1926 17.138L14.2716 17.046C14.33 17.4694 14.3633 17.8958 14.3716 18.323C14.3621 18.947 14.2772 19.5675 14.1186 20.171C14.1076 20.206 14.0946 20.24 14.0826 20.271L16.1916 20.357H16.4916V17.704C16.4529 17.6325 16.4368 17.5509 16.4456 17.47Z" fill="white"/>
<path opacity="0.7" d="M16.1926 20.36L14.0836 20.274C13.7157 21.3324 13.0714 22.2732 12.2176 22.999C13.5098 23.2589 14.8246 23.3906 16.1426 23.392H16.4966V20.881V20.36H16.1926Z" fill="white"/>
<path opacity="0.4" d="M7.54462 15.149C8.16364 15.1894 8.75735 15.4099 9.25267 15.7833C9.74799 16.1568 10.1233 16.6669 10.3324 17.2509C10.5415 17.835 10.5753 18.4674 10.4296 19.0704C10.2839 19.6734 9.96513 20.2206 9.51242 20.6447C9.05971 21.0688 8.49288 21.3513 7.88168 21.4574C7.27049 21.5635 6.64161 21.4886 6.07245 21.2418C5.50329 20.9951 5.01869 20.5874 4.6783 20.0688C4.33791 19.5502 4.15658 18.9434 4.15663 18.323C4.18612 17.4532 4.55935 16.6306 5.19447 16.0356C5.82959 15.4406 6.67475 15.1218 7.54462 15.149Z" fill="white"/>
</svg>
