<svg width="32" height="32" viewBox="0 0 32 32" fill="none" xmlns="http://www.w3.org/2000/svg">
<path d="M10.4 15.571H4L7.2 9.32098L10.4 15.568V15.571Z" fill="#4C4C4C"/>
<path opacity="0.4" d="M16.8 3.8V5.419C16.8 5.63117 16.7157 5.83466 16.5657 5.98469C16.4157 6.13471 16.2122 6.219 16 6.219C15.7878 6.219 15.5844 6.13471 15.4343 5.98469C15.2843 5.83466 15.2 5.63117 15.2 5.419V3.8C15.2 3.58783 15.2843 3.38434 15.4343 3.23431C15.5844 3.08429 15.7878 3 16 3C16.2122 3 16.4157 3.08429 16.5657 3.23431C16.7157 3.38434 16.8 3.58783 16.8 3.8Z" fill="#4C4C4C"/>
<path opacity="0.4" d="M12.04 7.794C11.8286 7.79474 11.6254 7.71252 11.474 7.565L10.343 6.465C10.2696 6.39345 10.2112 6.30792 10.1714 6.21346C10.1315 6.119 10.111 6.01752 10.111 5.915C10.111 5.81248 10.1315 5.711 10.1714 5.61654C10.2112 5.52208 10.2696 5.43655 10.343 5.365C10.4946 5.21819 10.6974 5.13611 10.9085 5.13611C11.1196 5.13611 11.3223 5.21819 11.474 5.365L12.605 6.465C12.6784 6.53655 12.7368 6.62208 12.7766 6.71654C12.8164 6.811 12.837 6.91248 12.837 7.015C12.837 7.11752 12.8164 7.219 12.7766 7.31346C12.7368 7.40792 12.6784 7.49345 12.605 7.565C12.4538 7.71227 12.251 7.79448 12.04 7.794Z" fill="#4C4C4C"/>
<path opacity="0.4" d="M19.961 7.794C19.7496 7.79474 19.5464 7.71252 19.395 7.565C19.3216 7.49345 19.2633 7.40792 19.2234 7.31346C19.1836 7.219 19.163 7.11752 19.163 7.015C19.163 6.91248 19.1836 6.811 19.2234 6.71654C19.2633 6.62208 19.3216 6.53655 19.395 6.465L20.526 5.365C20.6776 5.21819 20.8805 5.13611 21.0915 5.13611C21.3026 5.13611 21.5054 5.21819 21.657 5.365C21.7304 5.43655 21.7888 5.52208 21.8286 5.61654C21.8685 5.711 21.889 5.81248 21.889 5.915C21.889 6.01752 21.8685 6.119 21.8286 6.21346C21.7888 6.30792 21.7304 6.39345 21.657 6.465L20.526 7.565C20.3749 7.71227 20.172 7.79448 19.961 7.794Z" fill="#4C4C4C"/>
<path opacity="0.8" d="M10.4 15.571L7.20001 9.32098H16L10.4 15.569V15.571Z" fill="#4C4C4C"/>
<path opacity="0.6" d="M16 15.571H10.4L16 9.32098V15.571Z" fill="#4C4C4C"/>
<path opacity="0.7" d="M21.6 15.571H16V9.32098L21.6 15.571Z" fill="#4C4C4C"/>
<path opacity="0.8" d="M21.601 15.571L16.001 9.32098H24.801L21.601 15.569V15.571Z" fill="#4C4C4C"/>
<path d="M28 15.571H21.6L24.8 9.32098L28 15.568V15.571Z" fill="#4C4C4C"/>
<path opacity="0.7" d="M4 15.571L16 29.686L10.4 15.571H4Z" fill="#4C4C4C"/>
<path opacity="0.8" d="M16 29.677L10.4 15.571H16V29.676V29.677Z" fill="#4C4C4C"/>
<path d="M16.001 29.678V15.571H21.601L16.001 29.678Z" fill="#4C4C4C"/>
<path opacity="0.7" d="M16.004 29.678L21.604 15.571H28.004L16.004 29.678Z" fill="#4C4C4C"/>
</svg>
