<svg width="56" height="2" viewBox="0 0 56 2" fill="none" xmlns="http://www.w3.org/2000/svg">
<path d="M1.33333 0.625C1.12622 0.625 0.958328 0.792893 0.958328 1C0.958328 1.20711 1.12622 1.375 1.33333 1.375V0.625ZM2.78422 1.375C2.99133 1.375 3.15922 1.20711 3.15922 1C3.15922 0.792893 2.99133 0.625 2.78422 0.625V1.375ZM6.65327 0.625C6.44616 0.625 6.27827 0.792893 6.27827 1C6.27827 1.20711 6.44616 1.375 6.65327 1.375V0.625ZM9.55505 1.375C9.76216 1.375 9.93005 1.20711 9.93005 1C9.93005 0.792893 9.76216 0.625 9.55505 0.625V1.375ZM13.4241 0.625C13.217 0.625 13.0491 0.792893 13.0491 1C13.0491 1.20711 13.217 1.375 13.4241 1.375V0.625ZM16.3259 1.375C16.533 1.375 16.7009 1.20711 16.7009 1C16.7009 0.792893 16.533 0.625 16.3259 0.625V1.375ZM20.1949 0.625C19.9878 0.625 19.8199 0.792893 19.8199 1C19.8199 1.20711 19.9878 1.375 20.1949 1.375V0.625ZM23.0967 1.375C23.3038 1.375 23.4717 1.20711 23.4717 1C23.4717 0.792893 23.3038 0.625 23.0967 0.625V1.375ZM26.9658 0.625C26.7587 0.625 26.5908 0.792893 26.5908 1C26.5908 1.20711 26.7587 1.375 26.9658 1.375V0.625ZM29.8675 1.375C30.0747 1.375 30.2425 1.20711 30.2425 1C30.2425 0.792893 30.0747 0.625 29.8675 0.625V1.375ZM33.7366 0.625C33.5295 0.625 33.3616 0.792893 33.3616 1C33.3616 1.20711 33.5295 1.375 33.7366 1.375V0.625ZM36.6384 1.375C36.8455 1.375 37.0134 1.20711 37.0134 1C37.0134 0.792893 36.8455 0.625 36.6384 0.625V1.375ZM40.5074 0.625C40.3003 0.625 40.1324 0.792893 40.1324 1C40.1324 1.20711 40.3003 1.375 40.5074 1.375V0.625ZM43.4092 1.375C43.6163 1.375 43.7842 1.20711 43.7842 1C43.7842 0.792893 43.6163 0.625 43.4092 0.625V1.375ZM47.2783 0.625C47.0712 0.625 46.9033 0.792893 46.9033 1C46.9033 1.20711 47.0712 1.375 47.2783 1.375V0.625ZM50.1801 1.375C50.3872 1.375 50.5551 1.20711 50.5551 1C50.5551 0.792893 50.3872 0.625 50.1801 0.625V1.375ZM54.0491 0.625C53.842 0.625 53.6741 0.792893 53.6741 1C53.6741 1.20711 53.842 1.375 54.0491 1.375V0.625ZM1.33333 1.375H2.78422V0.625H1.33333V1.375ZM6.65327 1.375H9.55505V0.625H6.65327V1.375ZM13.4241 1.375H16.3259V0.625H13.4241V1.375ZM20.1949 1.375H23.0967V0.625H20.1949V1.375ZM26.9658 1.375H29.8675V0.625H26.9658V1.375ZM33.7366 1.375H36.6384V0.625H33.7366V1.375ZM40.5074 1.375H43.4092V0.625H40.5074V1.375ZM47.2783 1.375H50.1801V0.625H47.2783V1.375ZM54.0491 1.375H55.5V0.625H54.0491V1.375ZM1.33333 0.25C0.919115 0.25 0.583328 0.585786 0.583328 1C0.583328 1.41421 0.919115 1.75 1.33333 1.75V0.25ZM2.78422 1.75C3.19843 1.75 3.53422 1.41421 3.53422 1C3.53422 0.585786 3.19843 0.25 2.78422 0.25V1.75ZM6.65327 0.25C6.23905 0.25 5.90327 0.585786 5.90327 1C5.90327 1.41421 6.23905 1.75 6.65327 1.75V0.25ZM9.55505 1.75C9.96927 1.75 10.3051 1.41421 10.3051 1C10.3051 0.585786 9.96927 0.25 9.55505 0.25V1.75ZM13.4241 0.25C13.0099 0.25 12.6741 0.585786 12.6741 1C12.6741 1.41421 13.0099 1.75 13.4241 1.75V0.25ZM16.3259 1.75C16.7401 1.75 17.0759 1.41421 17.0759 1C17.0759 0.585786 16.7401 0.25 16.3259 0.25V1.75ZM20.1949 0.25C19.7807 0.25 19.4449 0.585786 19.4449 1C19.4449 1.41421 19.7807 1.75 20.1949 1.75V0.25ZM23.0967 1.75C23.5109 1.75 23.8467 1.41421 23.8467 1C23.8467 0.585786 23.5109 0.25 23.0967 0.25V1.75ZM26.9658 0.25C26.5516 0.25 26.2158 0.585786 26.2158 1C26.2158 1.41421 26.5516 1.75 26.9658 1.75V0.25ZM29.8675 1.75C30.2818 1.75 30.6175 1.41421 30.6175 1C30.6175 0.585786 30.2818 0.25 29.8675 0.25V1.75ZM33.7366 0.25C33.3224 0.25 32.9866 0.585786 32.9866 1C32.9866 1.41421 33.3224 1.75 33.7366 1.75V0.25ZM36.6384 1.75C37.0526 1.75 37.3884 1.41421 37.3884 1C37.3884 0.585786 37.0526 0.25 36.6384 0.25V1.75ZM40.5074 0.25C40.0932 0.25 39.7574 0.585786 39.7574 1C39.7574 1.41421 40.0932 1.75 40.5074 1.75V0.25ZM43.4092 1.75C43.8234 1.75 44.1592 1.41421 44.1592 1C44.1592 0.585786 43.8234 0.25 43.4092 0.25V1.75ZM47.2783 0.25C46.8641 0.25 46.5283 0.585786 46.5283 1C46.5283 1.41421 46.8641 1.75 47.2783 1.75V0.25ZM50.1801 1.75C50.5943 1.75 50.9301 1.41421 50.9301 1C50.9301 0.585786 50.5943 0.25 50.1801 0.25V1.75ZM54.0491 0.25C53.6349 0.25 53.2991 0.585786 53.2991 1C53.2991 1.41421 53.6349 1.75 54.0491 1.75V0.25ZM1.33333 1.75H2.78422V0.25H1.33333V1.75ZM6.65327 1.75H9.55505V0.25H6.65327V1.75ZM13.4241 1.75H16.3259V0.25H13.4241V1.75ZM20.1949 1.75H23.0967V0.25H20.1949V1.75ZM26.9658 1.75H29.8675V0.25H26.9658V1.75ZM33.7366 1.75H36.6384V0.25H33.7366V1.75ZM40.5074 1.75H43.4092V0.25H40.5074V1.75ZM47.2783 1.75H50.1801V0.25H47.2783V1.75ZM54.0491 1.75H55.5V0.25H54.0491V1.75Z" fill="#C7C7CC"/>
</svg>
