<svg width="32" height="32" viewBox="0 0 32 32" fill="none" xmlns="http://www.w3.org/2000/svg">
<path d="M14.3021 29.667C14.1607 29.6659 14.0214 29.6326 13.8949 29.5695C13.7684 29.5064 13.658 29.4153 13.5721 29.303C13.491 29.1953 13.4367 29.0698 13.4136 28.937C13.3905 28.8042 13.3992 28.6678 13.4391 28.539L15.8131 20.162C15.876 19.9438 15.8856 19.7137 15.8411 19.491C15.7988 19.2784 15.7091 19.0782 15.5787 18.905C15.4484 18.7319 15.2806 18.5904 15.0881 18.491C14.886 18.3874 14.6621 18.3339 14.4351 18.335H9.76706C9.64222 18.3353 9.51786 18.3195 9.39706 18.288C9.28222 18.2577 9.17167 18.213 9.06806 18.155C8.86637 18.0412 8.69497 17.8806 8.56829 17.6867C8.4416 17.4929 8.36333 17.2714 8.34006 17.041C8.32838 16.9227 8.33174 16.8034 8.35006 16.686C8.36952 16.5626 8.40481 16.4423 8.45506 16.328L13.8201 4.1C13.9627 3.77331 14.1975 3.49528 14.4957 3.29992C14.7939 3.10455 15.1426 3.00033 15.4991 3L19.4061 3L14.7921 13.855C14.7268 14.0079 14.6814 14.1685 14.6571 14.333C14.6342 14.4897 14.6312 14.6486 14.6481 14.806C14.6816 15.1124 14.7878 15.4065 14.9579 15.6636C15.128 15.9206 15.3571 16.1334 15.6261 16.284C15.7644 16.3609 15.9119 16.42 16.0651 16.46C16.2257 16.5019 16.391 16.5231 16.5571 16.523C16.8634 16.5225 17.1683 16.5646 17.4631 16.648C17.741 16.7272 18.0068 16.8439 18.2531 16.995C18.7306 17.2907 19.1245 17.7037 19.3972 18.1947C19.6699 18.6857 19.8124 19.2383 19.8111 19.8C19.8088 20.089 19.7671 20.3763 19.6871 20.654C19.6017 20.9483 19.4758 21.2293 19.3131 21.489L14.2131 29.659C14.2421 29.659 14.2711 29.659 14.3011 29.659C14.4189 29.6595 14.5355 29.635 14.6431 29.587C14.6881 29.5668 14.7313 29.5427 14.7721 29.515C14.6334 29.61 14.4691 29.6606 14.3011 29.66L14.3021 29.667Z" fill="#4C4C4C"/>
<path opacity="0.92" d="M14.9831 29.323L24.0221 17.748C24.2555 17.4495 24.4003 17.0915 24.44 16.7147C24.4796 16.3379 24.4126 15.9576 24.2465 15.617C24.0804 15.2765 23.822 14.9895 23.5006 14.7888C23.1792 14.5881 22.8079 14.4818 22.4291 14.482C22.1314 14.4822 21.8383 14.4081 21.5765 14.2666C21.3146 14.125 21.0922 13.9203 20.9294 13.6711C20.7666 13.4219 20.6685 13.136 20.644 12.8393C20.6195 12.5426 20.6693 12.2445 20.7891 11.972L23.5961 5.572C23.7188 5.29284 23.7699 4.9875 23.7449 4.68359C23.7199 4.37969 23.6195 4.08681 23.4528 3.83147C23.2861 3.57613 23.0584 3.36638 22.7903 3.2212C22.5221 3.07602 22.222 2.99999 21.9171 3L19.4061 3L14.7921 13.855C14.6682 14.1466 14.6184 14.4644 14.6473 14.78C14.6762 15.0955 14.7829 15.399 14.9577 15.6632C15.1325 15.9275 15.3701 16.1443 15.6492 16.2944C15.9283 16.4444 16.2402 16.523 16.5571 16.523C17.1368 16.5231 17.706 16.6783 18.2055 16.9725C18.705 17.2667 19.1167 17.6892 19.3979 18.1961C19.6791 18.7031 19.8195 19.2761 19.8046 19.8556C19.7897 20.4352 19.62 21.0002 19.3131 21.492L14.2131 29.662C14.3598 29.6774 14.508 29.6542 14.6431 29.5947C14.7781 29.5353 14.8953 29.4416 14.9831 29.323Z" fill="#4C4C4C"/>
</svg>
