<svg width="57" height="12" viewBox="0 0 57 12" fill="none" xmlns="http://www.w3.org/2000/svg">
<path d="M1.49998 5.625C1.29288 5.625 1.12498 5.79289 1.12498 6C1.12498 6.20711 1.29288 6.375 1.49998 6.375V5.625ZM55.9318 6.26517C56.0783 6.11872 56.0783 5.88128 55.9318 5.73483L53.5453 3.34835C53.3989 3.2019 53.1614 3.2019 53.015 3.34835C52.8686 3.4948 52.8686 3.73223 53.015 3.87868L55.1363 6L53.015 8.12132C52.8686 8.26777 52.8686 8.5052 53.015 8.65165C53.1614 8.7981 53.3989 8.7981 53.5453 8.65165L55.9318 6.26517ZM2.95088 6.375C3.15798 6.375 3.32588 6.20711 3.32588 6C3.32588 5.79289 3.15798 5.625 2.95088 5.625V6.375ZM6.81992 5.625C6.61282 5.625 6.44492 5.79289 6.44492 6C6.44492 6.20711 6.61282 6.375 6.81992 6.375V5.625ZM9.72171 6.375C9.92882 6.375 10.0967 6.20711 10.0967 6C10.0967 5.79289 9.92882 5.625 9.72171 5.625V6.375ZM13.5908 5.625C13.3836 5.625 13.2158 5.79289 13.2158 6C13.2158 6.20711 13.3836 6.375 13.5908 6.375V5.625ZM16.4925 6.375C16.6996 6.375 16.8675 6.20711 16.8675 6C16.8675 5.79289 16.6996 5.625 16.4925 5.625V6.375ZM20.3616 5.625C20.1545 5.625 19.9866 5.79289 19.9866 6C19.9866 6.20711 20.1545 6.375 20.3616 6.375V5.625ZM23.2634 6.375C23.4705 6.375 23.6384 6.20711 23.6384 6C23.6384 5.79289 23.4705 5.625 23.2634 5.625V6.375ZM27.1324 5.625C26.9253 5.625 26.7574 5.79289 26.7574 6C26.7574 6.20711 26.9253 6.375 27.1324 6.375V5.625ZM30.0342 6.375C30.2413 6.375 30.4092 6.20711 30.4092 6C30.4092 5.79289 30.2413 5.625 30.0342 5.625V6.375ZM33.9033 5.625C33.6961 5.625 33.5283 5.79289 33.5283 6C33.5283 6.20711 33.6961 6.375 33.9033 6.375V5.625ZM36.805 6.375C37.0121 6.375 37.18 6.20711 37.18 6C37.18 5.79289 37.0121 5.625 36.805 5.625V6.375ZM40.6741 5.625C40.467 5.625 40.2991 5.79289 40.2991 6C40.2991 6.20711 40.467 6.375 40.6741 6.375V5.625ZM43.5759 6.375C43.783 6.375 43.9509 6.20711 43.9509 6C43.9509 5.79289 43.783 5.625 43.5759 5.625V6.375ZM47.4449 5.625C47.2378 5.625 47.0699 5.79289 47.0699 6C47.0699 6.20711 47.2378 6.375 47.4449 6.375V5.625ZM50.3467 6.375C50.5538 6.375 50.7217 6.20711 50.7217 6C50.7217 5.79289 50.5538 5.625 50.3467 5.625V6.375ZM54.2158 5.625C54.0087 5.625 53.8408 5.79289 53.8408 6C53.8408 6.20711 54.0087 6.375 54.2158 6.375V5.625ZM1.49998 6.375H2.95088V5.625H1.49998V6.375ZM6.81992 6.375H9.72171V5.625H6.81992V6.375ZM13.5908 6.375H16.4925V5.625H13.5908V6.375ZM20.3616 6.375H23.2634V5.625H20.3616V6.375ZM27.1324 6.375H30.0342V5.625H27.1324V6.375ZM33.9033 6.375H36.805V5.625H33.9033V6.375ZM40.6741 6.375H43.5759V5.625H40.6741V6.375ZM47.4449 6.375H50.3467V5.625H47.4449V6.375ZM54.2158 6.375H55.6666V5.625H54.2158V6.375ZM1.49998 5.25C1.08577 5.25 0.749985 5.58579 0.749985 6C0.749985 6.41421 1.08577 6.75 1.49998 6.75V5.25ZM56.197 6.53033C56.4899 6.23744 56.4899 5.76256 56.197 5.46967L51.424 0.696699C51.1311 0.403806 50.6562 0.403806 50.3633 0.696699C50.0705 0.989593 50.0705 1.46447 50.3633 1.75736L54.606 6L50.3633 10.2426C50.0705 10.5355 50.0705 11.0104 50.3633 11.3033C50.6562 11.5962 51.1311 11.5962 51.424 11.3033L56.197 6.53033ZM2.95088 6.75C3.36509 6.75 3.70088 6.41421 3.70088 6C3.70088 5.58579 3.36509 5.25 2.95088 5.25V6.75ZM6.81992 5.25C6.40571 5.25 6.06992 5.58579 6.06992 6C6.06992 6.41421 6.40571 6.75 6.81992 6.75V5.25ZM9.72171 6.75C10.1359 6.75 10.4717 6.41421 10.4717 6C10.4717 5.58579 10.1359 5.25 9.72171 5.25V6.75ZM13.5908 5.25C13.1765 5.25 12.8408 5.58579 12.8408 6C12.8408 6.41421 13.1765 6.75 13.5908 6.75V5.25ZM16.4925 6.75C16.9068 6.75 17.2425 6.41421 17.2425 6C17.2425 5.58579 16.9068 5.25 16.4925 5.25V6.75ZM20.3616 5.25C19.9474 5.25 19.6116 5.58579 19.6116 6C19.6116 6.41421 19.9474 6.75 20.3616 6.75V5.25ZM23.2634 6.75C23.6776 6.75 24.0134 6.41421 24.0134 6C24.0134 5.58579 23.6776 5.25 23.2634 5.25V6.75ZM27.1324 5.25C26.7182 5.25 26.3824 5.58579 26.3824 6C26.3824 6.41421 26.7182 6.75 27.1324 6.75V5.25ZM30.0342 6.75C30.4484 6.75 30.7842 6.41421 30.7842 6C30.7842 5.58579 30.4484 5.25 30.0342 5.25V6.75ZM33.9033 5.25C33.489 5.25 33.1533 5.58579 33.1533 6C33.1533 6.41421 33.489 6.75 33.9033 6.75V5.25ZM36.805 6.75C37.2193 6.75 37.555 6.41421 37.555 6C37.555 5.58579 37.2193 5.25 36.805 5.25V6.75ZM40.6741 5.25C40.2599 5.25 39.9241 5.58579 39.9241 6C39.9241 6.41421 40.2599 6.75 40.6741 6.75V5.25ZM43.5759 6.75C43.9901 6.75 44.3259 6.41421 44.3259 6C44.3259 5.58579 43.9901 5.25 43.5759 5.25V6.75ZM47.4449 5.25C47.0307 5.25 46.6949 5.58579 46.6949 6C46.6949 6.41421 47.0307 6.75 47.4449 6.75V5.25ZM50.3467 6.75C50.7609 6.75 51.0967 6.41421 51.0967 6C51.0967 5.58579 50.7609 5.25 50.3467 5.25V6.75ZM54.2158 5.25C53.8015 5.25 53.4658 5.58579 53.4658 6C53.4658 6.41421 53.8015 6.75 54.2158 6.75V5.25ZM1.49998 6.75H2.95088V5.25H1.49998V6.75ZM6.81992 6.75H9.72171V5.25H6.81992V6.75ZM13.5908 6.75H16.4925V5.25H13.5908V6.75ZM20.3616 6.75H23.2634V5.25H20.3616V6.75ZM27.1324 6.75H30.0342V5.25H27.1324V6.75ZM33.9033 6.75H36.805V5.25H33.9033V6.75ZM40.6741 6.75H43.5759V5.25H40.6741V6.75ZM47.4449 6.75H50.3467V5.25H47.4449V6.75ZM54.2158 6.75H55.6666V5.25H54.2158V6.75Z" fill="#C7C7CC"/>
</svg>
