<svg width="20" height="20" viewBox="0 0 20 20" fill="none" xmlns="http://www.w3.org/2000/svg">
<g clip-path="url(#clip0_1:912)">
<path opacity="0.24" d="M10 18.6455C15.054 18.6455 19.151 14.5516 19.151 9.50148C19.151 4.45139 15.054 0.357483 10 0.357483C4.94604 0.357483 0.848999 4.45139 0.848999 9.50148C0.848999 14.5516 4.94604 18.6455 10 18.6455Z" fill="#235FD8"/>
<path d="M10 18.6455C8.93673 18.6475 7.88136 18.4627 6.88202 18.0995L5.93301 19.9995H14.067L13.118 18.0995C12.1187 18.4626 11.0633 18.6474 10 18.6455Z" fill="#235FD8"/>
<g opacity="0.7">
<path opacity="0.48" d="M2.799 6.52148C2.01089 8.43034 2.01089 10.5736 2.799 12.4825L9.999 9.50148L2.799 6.52148Z" fill="#235FD8"/>
<path opacity="0.48" d="M17.201 6.52148L10.001 9.50249L17.201 12.4835C17.5933 11.5388 17.7953 10.5259 17.7953 9.50299C17.7953 8.48006 17.5933 7.46719 17.201 6.52249V6.52148Z" fill="#235FD8"/>
</g>
<g opacity="0.9">
<path opacity="0.6" d="M7.01801 2.3045C5.10811 3.09543 3.59029 4.61218 2.798 6.52151L9.998 9.50451L7.01801 2.3045Z" fill="#235FD8"/>
<path opacity="0.6" d="M17.2 6.52151C16.4079 4.61237 14.8905 3.09565 12.981 2.3045L10 9.50451L17.2 6.52151Z" fill="#235FD8"/>
<path opacity="0.6" d="M7.01801 16.7015C8.92839 17.4889 11.0726 17.4889 12.983 16.7015L10.001 9.50153L7.01801 16.7015Z" fill="#235FD8"/>
</g>
<g opacity="0.6">
<path opacity="0.32" d="M12.983 2.30451C11.0726 1.51715 8.92839 1.51715 7.01801 2.30451L10.001 9.50451L12.983 2.30451Z" fill="#235FD8"/>
<path opacity="0.32" d="M12.983 16.7015C14.8923 15.9106 16.4097 14.3943 17.202 12.4855L10 9.50153L12.983 16.7015Z" fill="#235FD8"/>
<path opacity="0.32" d="M2.798 12.4825C3.59029 14.3918 5.10811 15.9086 7.01801 16.6995L10.001 9.49951L2.798 12.4825Z" fill="#235FD8"/>
</g>
<path d="M12.261 0.000488281L7.51599 0.000488281L9.88799 3.72549L12.261 0.000488281Z" fill="#235FD8"/>
</g>
<defs>
<clipPath id="clip0_1:912">
<rect width="20" height="19.999" fill="white" transform="translate(0 0.000488281)"/>
</clipPath>
</defs>
</svg>
