<svg width="41" height="20" viewBox="0 0 41 20" fill="none" xmlns="http://www.w3.org/2000/svg">
<path fill-rule="evenodd" clip-rule="evenodd" d="M35.8051 0.223126C37.3238 0.854473 38.7254 3.22905 39.5654 6.594C40.1411 8.90099 40.6891 15.1046 40.437 16.4605C40.2177 17.6392 39.6794 17.878 37.2406 17.878H35.4377V17.0004C35.4377 16.0081 34.8955 14.5245 34.2766 13.8231C33.6018 13.0585 32.1337 12.4118 31.0728 12.4118C30.0119 12.4118 28.5438 13.0585 27.8689 13.8231C27.2501 14.5245 26.7079 16.0081 26.7079 17.0004V17.878H20.9435H15.1792L14.9076 16.4138C14.5778 14.6363 13.8501 13.5674 12.5205 12.908C10.6504 11.9805 8.75137 12.3807 7.36867 13.9943C6.56528 14.9317 6.39554 15.3839 6.28254 16.8841L6.21706 17.7538L3.77635 17.8241C1.67174 17.8847 1.2806 17.8323 0.937225 17.4432C0.588272 17.0484 0.534199 16.0806 0.503399 9.67048C0.481819 5.15216 0.563782 2.09978 0.717766 1.69826C0.855019 1.34047 1.26289 0.809501 1.62421 0.518053C2.28064 -0.0109274 2.29786 -0.0114243 18.7989 0.0042289C27.8835 0.0129251 35.5364 0.111565 35.8051 0.223126ZM2.71786 1.91417C2.30465 2.2583 2.16594 2.71845 2.05173 4.12327C1.97243 5.09899 1.97898 6.189 2.06628 6.54579L2.22511 7.19404H6.22167H10.2182V4.50242C10.2182 3.02183 10.1455 1.73602 10.0565 1.64509C9.96773 1.5539 8.39758 1.47936 6.56722 1.47936C3.75841 1.47936 3.15823 1.54719 2.71786 1.91417ZM28.6478 4.46093C28.6478 6.60518 28.7191 7.19404 28.9791 7.19404C29.7437 7.19404 32.8161 9.07442 35.0718 10.9232C36.4045 12.0152 37.7031 12.9087 37.9577 12.9087C38.391 12.9087 38.4109 12.7609 38.269 10.6104C38.1141 8.26343 37.4269 5.26248 36.7263 3.8748C36.5114 3.44894 36.0129 2.79175 35.6186 2.41408C34.9122 1.73826 34.8542 1.72783 31.7746 1.72783H28.6478V4.46093ZM19.9704 4.39882L20.0393 7.06981L23.7373 7.13838L27.4354 7.20696V4.46739V1.72783H23.6684H19.9015L19.9704 4.39882ZM11.2406 4.39882L11.3095 7.06981L15.0075 7.13838L18.7055 7.20696V4.46739V1.72783H14.9386H11.1717L11.2406 4.39882ZM32.4552 14.0576C34.9306 15.3081 34.5598 18.9735 31.866 19.8846C30.8242 20.2369 29.2415 19.6799 28.5615 18.7218C27.4851 17.2047 28.0108 14.9431 29.6384 14.0894C30.6569 13.555 31.4428 13.546 32.4552 14.0576ZM12.0692 14.1307C13.1895 14.8306 13.6132 15.5961 13.6132 16.9204C13.6132 19.9427 9.75094 21.1545 8.10537 18.6487C7.09998 17.1182 7.46737 15.2681 8.98441 14.2206C9.9847 13.5301 11.058 13.4988 12.0692 14.1307Z" fill="#1882FF"/>
</svg>
