<svg width="22" height="19" viewBox="0 0 22 19" fill="none" xmlns="http://www.w3.org/2000/svg">
<path d="M11.8947 0.0112305H10.5843C12.9297 0.134885 15.1392 1.15041 16.7603 2.84989C18.3815 4.54937 19.2916 6.80425 19.3046 9.15289C19.3175 11.5015 18.4321 13.7663 16.8297 15.4835C15.2274 17.2007 13.0292 18.2404 10.6853 18.3898H11.898C14.3352 18.3898 16.6725 17.4217 18.3959 15.6983C20.1192 13.975 21.0873 11.6377 21.0873 9.20052C21.0873 6.76337 20.1192 4.42604 18.3959 2.70271C16.6725 0.979385 14.3352 0.0112305 11.898 0.0112305H11.8947Z" fill="#E1AA00"/>
<path d="M14.9888 1.40458H16.7367C16.4246 1.20833 16.1009 1.03112 15.7674 0.873932H14.0195C14.3529 1.03143 14.6765 1.20863 14.9888 1.40458V1.40458Z" fill="#B88700"/>
<path d="M18.967 6.7122H20.6925C20.642 6.5327 20.5859 6.35544 20.5253 6.18155H18.7998C18.8615 6.35544 18.9165 6.5327 18.967 6.7122Z" fill="#B88700"/>
<path d="M17.7318 4.05561H19.4696C19.3473 3.87387 19.2183 3.69549 19.0837 3.52496H17.3459C17.4828 3.7011 17.6129 3.88396 17.7318 4.05561Z" fill="#B88700"/>
<path d="M14.438 17.3252H16.1713C16.4723 17.1647 16.7641 16.9876 17.0452 16.7945H15.3097C15.0291 16.9873 14.7381 17.1644 14.438 17.3252Z" fill="#B88700"/>
<path d="M21.0391 8.83368H19.3137C19.3137 8.95709 19.3238 9.08162 19.3238 9.20502V9.36433H21.0492V9.20054C21.0391 9.07825 21.0391 8.95596 21.0391 8.83368Z" fill="#B88700"/>
<path d="M18.8716 12.0187H20.5971C20.6532 11.8448 20.7093 11.6675 20.7496 11.488H19.0253C18.9804 11.6675 18.9277 11.8448 18.8716 12.0187Z" fill="#B88700"/>
<path d="M17.5085 14.6708H19.2475C19.3742 14.498 19.4965 14.3208 19.6109 14.1401H17.8788C17.7565 14.323 17.6364 14.5003 17.5085 14.6708Z" fill="#B88700"/>
<path d="M10.2141 17.968C15.1114 17.968 19.0814 13.998 19.0814 9.10068C19.0814 4.2034 15.1114 0.233368 10.2141 0.233368C5.31683 0.233368 1.3468 4.2034 1.3468 9.10068C1.3468 13.998 5.31683 17.968 10.2141 17.968Z" fill="url(#paint0_linear_6:117)"/>
<path opacity="0.3" d="M10.0178 0.537398C11.9293 0.539139 13.7853 1.18041 15.2902 2.35908C16.7951 3.53776 17.8624 5.18606 18.322 7.04151C18.7817 8.89696 18.6073 10.8529 17.8267 12.5977C17.046 14.3426 15.704 15.7761 14.0144 16.67C12.3247 17.5639 10.3846 17.8667 8.50287 17.5303C6.62117 17.1939 4.90614 16.2375 3.63089 14.8136C2.35563 13.3896 1.59349 11.5799 1.46582 9.6726C1.33816 7.76533 1.85231 5.87019 2.9264 4.28895C3.71222 3.13211 4.76942 2.18533 6.00559 1.53136C7.24176 0.877385 8.61929 0.536124 10.0178 0.537398ZM10.0178 0.233369C7.89544 0.232338 5.84319 0.992942 4.23415 2.3769C2.62511 3.76085 1.56611 5.67625 1.2497 7.77488C0.933293 9.87351 1.38048 12.016 2.50995 13.8128C3.63943 15.6097 5.3762 16.9416 7.4045 17.5663C9.43281 18.1911 11.618 18.0672 13.5627 17.2173C15.5074 16.3674 17.0826 14.8478 18.0019 12.9349C18.9211 11.022 19.1234 8.84267 18.5719 6.79322C18.0204 4.74378 16.7518 2.96028 14.9967 1.76697C13.5282 0.768521 11.7936 0.234232 10.0178 0.233369Z" fill="url(#paint1_linear_6:117)"/>
<path d="M10.1087 18.41C8.28808 18.41 6.50839 17.8701 4.99464 16.8587C3.48088 15.8472 2.30105 14.4096 1.60435 12.7276C0.907644 11.0456 0.725355 9.19479 1.08053 7.4092C1.43571 5.6236 2.3124 3.98343 3.59974 2.69609C4.88708 1.40874 6.52726 0.532053 8.31285 0.176876C10.0984 -0.178301 11.9493 0.00398807 13.6313 0.700693C15.3133 1.3974 16.7509 2.57722 17.7623 4.09098C18.7738 5.60473 19.3137 7.38443 19.3137 9.205C19.3137 11.6463 18.3438 13.9876 16.6176 15.7139C14.8913 17.4402 12.55 18.41 10.1087 18.41V18.41ZM10.1087 0.465583C8.38017 0.465583 6.69049 0.978142 5.2533 1.93844C3.81611 2.89874 2.69595 4.26365 2.03449 5.86057C1.37302 7.45749 1.19995 9.2147 1.53717 10.91C1.87438 12.6053 2.70673 14.1625 3.92896 15.3847C5.15119 16.6069 6.7084 17.4393 8.40368 17.7765C10.099 18.1137 11.8562 17.9406 13.4531 17.2792C15.05 16.6177 16.4149 15.4976 17.3752 14.0604C18.3355 12.6232 18.8481 10.9335 18.8481 9.205C18.8481 8.05733 18.622 6.92089 18.1828 5.86057C17.7436 4.80026 17.0999 3.83683 16.2884 3.0253C15.4768 2.21377 14.5134 1.57003 13.4531 1.13083C12.3928 0.691635 11.2563 0.465583 10.1087 0.465583V0.465583Z" fill="url(#paint2_linear_6:117)"/>
<path d="M11.7275 13.3672C11.6649 13.4287 11.5808 13.4633 11.493 13.4636C11.3882 13.4642 11.2842 13.4441 11.1871 13.4044C11.09 13.3647 11.0017 13.3062 10.9273 13.2323C10.8529 13.1584 10.7938 13.0705 10.7534 12.9737C10.713 12.8769 10.6922 12.7731 10.692 12.6682V10.291H12.0517C12.2666 10.291 12.4726 10.2056 12.6245 10.0537C12.7764 9.90183 12.8617 9.6958 12.8617 9.48098C12.8617 9.26615 12.7764 9.06013 12.6245 8.90822C12.4726 8.75632 12.2666 8.67098 12.0517 8.67098H10.6909V7.0207H12.0517C12.2666 7.0207 12.4726 6.93536 12.6245 6.78346C12.7764 6.63156 12.8617 6.42553 12.8617 6.21071C12.8617 5.99588 12.7764 5.78986 12.6245 5.63796C12.4726 5.48605 12.2666 5.40071 12.0517 5.40071H10.6909V3.88281C10.6909 3.66992 10.6063 3.46575 10.4558 3.31522C10.3053 3.16468 10.1011 3.08011 9.88819 3.08011C9.6753 3.08011 9.47113 3.16468 9.3206 3.31522C9.17006 3.46575 9.08549 3.66992 9.08549 3.88281V5.40296H7.74597C7.53115 5.40296 7.32512 5.4883 7.17322 5.6402C7.02132 5.7921 6.93597 5.99813 6.93597 6.21295C6.93597 6.42778 7.02132 6.6338 7.17322 6.7857C7.32512 6.93761 7.53115 7.02294 7.74597 7.02294H9.08661V8.66762H7.74597C7.53115 8.66762 7.32512 8.75296 7.17322 8.90486C7.02132 9.05676 6.93597 9.26279 6.93597 9.47761C6.93597 9.69244 7.02132 9.89846 7.17322 10.0504C7.32512 10.2023 7.53115 10.2876 7.74597 10.2876H9.08661V12.6536C9.08661 13.2949 9.34087 13.9099 9.79366 14.364C10.2464 14.818 10.8608 15.074 11.502 15.0758C11.7581 15.0756 12.0117 15.0247 12.2479 14.9259C12.4842 14.8271 12.6986 14.6825 12.8786 14.5003C12.9546 14.4249 13.015 14.3353 13.0562 14.2365C13.0974 14.1377 13.1187 14.0317 13.1187 13.9247C13.1187 13.8176 13.0975 13.7117 13.0563 13.6129C13.0151 13.5141 12.9547 13.4244 12.8786 13.3491C12.8026 13.2738 12.7123 13.2143 12.6131 13.174C12.5139 13.1338 12.4077 13.1136 12.3007 13.1147C12.1937 13.1157 12.0879 13.138 11.9895 13.1802C11.8911 13.2224 11.8021 13.2836 11.7275 13.3604V13.3672Z" fill="#704B00"/>
<defs>
<linearGradient id="paint0_linear_6:117" x1="10.2141" y1="17.968" x2="10.2141" y2="0.233368" gradientUnits="userSpaceOnUse">
<stop offset="0.02" stop-color="#FCB900"/>
<stop offset="1" stop-color="#FCCA04"/>
</linearGradient>
<linearGradient id="paint1_linear_6:117" x1="5.03256" y1="16.4169" x2="14.9944" y2="1.75776" gradientUnits="userSpaceOnUse">
<stop offset="0.02" stop-color="#603813"/>
<stop offset="0.58" stop-color="#C69C6D"/>
<stop offset="1" stop-color="#C69C6D" stop-opacity="0"/>
</linearGradient>
<linearGradient id="paint2_linear_6:117" x1="7.71536" y1="46.43" x2="26.1254" y2="46.43" gradientUnits="userSpaceOnUse">
<stop stop-color="#FCD847"/>
<stop offset="1" stop-color="#A47E1B"/>
</linearGradient>
</defs>
</svg>
