<svg width="226" height="68" viewBox="0 0 226 68" fill="none" xmlns="http://www.w3.org/2000/svg">
<path d="M82.7258 35.7908C82.7071 37.0448 82.6194 38.2968 82.463 39.5416C82.236 41.4666 81.9314 43.3799 81.794 45.3108C81.7164 46.3783 78.0429 46.1158 78.1205 45.0483C78.2699 43.0766 78.5566 41.1224 78.8015 39.1624C78.9467 38.0185 79.0264 36.8676 79.0404 35.7149C78.0499 37.061 77.1423 38.4635 76.3226 39.9149C75.2355 41.8633 74.2738 43.8699 73.336 45.8824C72.3564 47.3174 72.5834 47.5158 69.6327 46.2324C69.3161 46.0983 69.4654 45.5791 69.4415 45.2408C69.4438 45.0132 69.4698 44.7865 69.5192 44.5641C69.6088 44.0333 69.8298 43.1991 69.9612 42.6974C70.7795 39.6408 71.562 36.5783 72.2728 33.4983C73.0732 29.8641 74.1842 24.9933 74.7517 21.3183C75.0205 19.5683 75.2654 17.8591 75.558 16.1383C75.791 15.0883 79.3868 15.8699 79.1419 16.9199C78.8791 18.5649 78.6342 20.2158 78.3774 21.8666C77.8279 25.4308 76.7407 30.1966 75.9881 33.7258C76.2211 33.4108 76.454 33.0899 76.6989 32.7866C77.5053 31.8358 78.5446 30.8149 79.9483 30.9783C80.4121 31.0356 80.8547 31.2018 81.2385 31.4624C81.5775 31.7718 81.8764 32.1205 82.1285 32.5008C82.254 32.8449 82.4212 33.1774 82.5168 33.5333C82.6757 34.2753 82.7459 35.0329 82.7258 35.7908Z" fill="#1882FF"/>
<path d="M101.416 30.2491C100.853 31.6826 100.384 33.1498 100.012 34.6416C99.2284 37.7082 98.6044 40.8116 98.1425 43.9399C97.8678 46.0282 97.9872 44.9899 97.7841 47.0549C97.6707 48.1166 94.0091 47.7607 94.1166 46.6932C94.3436 44.5057 94.2122 45.6024 94.5049 43.4149C94.6005 42.7557 94.708 42.0966 94.8215 41.4432C93.6194 42.6344 92.2017 43.5976 90.6403 44.2841C90.2484 44.4174 89.8497 44.5303 89.4456 44.6224C89.0813 44.6224 88.7169 44.6866 88.3585 44.6632C87.7541 44.6201 87.1672 44.4453 86.6411 44.1515C86.1149 43.8577 85.6629 43.4526 85.3182 42.9657C85.1575 42.7016 85.012 42.4289 84.8821 42.1491C84.8105 41.8866 84.7209 41.6299 84.6731 41.3616C84.4222 39.9382 84.912 38.5266 85.4078 37.2141C85.5631 36.8757 85.7005 36.5316 85.8677 36.2049C86.8505 34.3032 88.2015 32.6055 89.8458 31.2057C90.1863 30.9374 90.5088 30.6574 90.8613 30.4066C92.1071 29.4471 93.675 28.9769 95.2575 29.0882C95.4964 29.1232 95.7354 29.1466 95.9683 29.1991C96.5553 29.3377 97.1118 29.5788 97.6109 29.9107C97.7662 29.4791 97.9394 29.0532 98.1306 28.6332C98.6144 27.6766 101.906 29.2924 101.416 30.2491ZM96.4282 33.8132C96.3272 33.7543 96.2494 33.6639 96.2072 33.5566C96.1098 33.3731 95.9733 33.212 95.807 33.0841C95.6711 32.9501 95.5092 32.8439 95.3307 32.7718C95.1522 32.6996 94.9608 32.663 94.7677 32.6641C93.6985 32.6349 92.9339 33.3699 92.1574 34.0057C90.6795 35.2893 89.5211 36.8854 88.7707 38.6724C88.5735 39.3607 88.0061 40.4224 88.4003 41.1107H88.46C88.4959 41.1107 88.5258 41.1691 88.5676 41.1691C88.6094 41.1691 88.5676 41.1224 88.5676 41.1166C88.6133 41.1135 88.6592 41.1135 88.7049 41.1166C88.8343 41.1218 88.9626 41.0915 89.0753 41.0291C90.6429 40.2508 92.0486 39.1945 93.2207 37.9141C94.1641 36.9497 94.9571 35.8549 95.5741 34.6649C95.6513 34.5567 95.759 34.4727 95.8841 34.423C96.0091 34.3733 96.1463 34.3601 96.2789 34.3849C96.3386 34.1982 96.3804 34.0057 96.4282 33.8132Z" fill="#1882FF"/>
<path d="M114.533 32.7283L114.264 34.0291C114.217 34.2591 114.105 34.4718 113.942 34.6437C113.778 34.8157 113.57 34.9401 113.338 35.0033C109.157 36.17 106.081 41.5425 105.328 45.9758C105.155 47.0316 101.529 46.5591 101.685 45.4683C101.947 43.6658 104.522 30.5525 105.107 28.8608C105.591 27.8983 108.9 29.4791 108.416 30.4416C108.112 31.7308 107.962 32.5416 107.712 33.8483C108.703 32.2441 111.475 31.3633 113.141 31.2C113.344 31.182 113.548 31.2108 113.738 31.284C113.927 31.3572 114.096 31.4727 114.232 31.6214C114.367 31.77 114.465 31.9476 114.517 32.1398C114.569 32.3321 114.575 32.5336 114.533 32.7283Z" fill="#1882FF"/>
<path d="M126.419 43.9866C125.67 44.5259 124.87 44.9946 124.03 45.3866C121.91 46.3258 119.688 47.1366 117.322 47.0841C116.457 47.0633 115.607 46.8645 114.826 46.5008C114.23 46.2237 113.701 45.8261 113.275 45.3343C112.849 44.8425 112.534 44.2678 112.353 43.6483C112.268 43.2341 112.21 42.8153 112.179 42.3941C112.215 42.0149 112.227 41.6358 112.293 41.2274C112.628 39.5925 113.257 38.0284 114.151 36.6074C114.142 36.4559 114.142 36.304 114.151 36.1524C114.151 35.8433 114.449 35.6216 114.879 35.4816L115.094 35.1549C115.423 34.7408 115.728 34.3149 116.074 33.9124C117.36 32.332 118.993 31.0541 120.852 30.1733C121.289 29.9808 121.748 29.8641 122.196 29.7124C122.682 29.6165 123.176 29.5638 123.672 29.5549C124.421 29.6001 125.14 29.8647 125.733 30.3141C126.326 30.7636 126.768 31.3772 126.999 32.0749C127.1 32.3608 127.148 32.6583 127.22 32.9499C127.275 33.2187 127.289 33.4938 127.262 33.7666C127.155 35.1403 126.645 36.4549 125.792 37.5524C124.794 38.8759 123.501 39.9609 122.011 40.7258C120.5 41.4083 119.025 41.8574 117.382 41.3499C117.113 41.2496 116.85 41.1347 116.594 41.0058L116.379 40.8716C116.236 41.2779 116.13 41.6956 116.062 42.1199V42.6508C116.092 42.7405 116.132 42.8266 116.181 42.9074C116.432 43.2691 117.334 43.2341 117.699 43.2458C119.352 43.0812 120.959 42.6142 122.435 41.8691C123.053 41.5785 123.641 41.2308 124.191 40.8308C125.111 40.2299 127.363 43.3333 126.419 43.9866ZM118.911 36.5374C118.672 36.8174 118.457 37.1208 118.242 37.4066C118.29 37.5583 118.738 38.0541 118.762 37.8499C119.326 37.7949 119.87 37.6196 120.357 37.3366C121.287 36.83 122.09 36.1288 122.71 35.2833C123.165 34.7275 123.38 34.0198 123.307 33.3116C123.272 33.2591 122.997 32.9674 123.039 33.2066C123.039 33.2649 123.128 33.3233 123.092 33.3758C123.057 33.4283 122.913 33.4691 122.83 33.5158C121.284 34.185 119.936 35.2243 118.911 36.5374Z" fill="#1882FF"/>
<path d="M146.262 21.7908L146.232 21.7558C145.158 21.5426 144.06 21.4603 142.965 21.5108C140.946 21.5108 138.933 21.575 136.92 21.7558C136.837 22.7475 136.717 23.7333 136.586 24.725C136.18 27.91 135.618 31.0775 135.045 34.2391C134.531 37.0333 133.999 39.8216 133.486 42.61C133.299 43.6211 133.133 44.6341 132.99 45.6491C132.841 46.705 129.197 46.2325 129.346 45.1533C129.496 44.0741 129.663 43.03 129.86 41.9741C130.374 39.1858 130.905 36.4033 131.419 33.615C131.98 30.5058 132.536 27.3966 132.936 24.2816C133.026 23.5758 133.115 22.87 133.193 22.1583C131.634 22.3391 130.081 22.5433 128.54 22.8583C127.3 23.0631 126.082 23.3814 124.902 23.8091C123.875 24.1825 122.585 20.805 123.606 20.4316C124.961 19.9372 126.361 19.5681 127.787 19.3291C130.356 18.8504 132.948 18.498 135.552 18.2733C138.003 18.0265 140.466 17.9077 142.929 17.9175C144.353 17.8633 145.777 17.9828 147.17 18.2733L147.767 18.495C148.735 18.915 147.266 22.2166 146.262 21.7908Z" fill="#1882FF"/>
<path d="M149.428 32.7283L149.159 34.0291C149.111 34.2586 148.999 34.4706 148.835 34.6424C148.672 34.8141 148.464 34.9389 148.233 35.0033C144.082 36.17 140.97 41.5425 140.223 45.9758C140.044 47.0316 136.424 46.5591 136.58 45.4683C136.843 43.6658 139.417 30.5525 140.002 28.8608C140.48 27.8983 143.789 29.4791 143.311 30.4416C143.007 31.7308 142.858 32.5416 142.601 33.8483C143.598 32.2441 146.37 31.3633 148.036 31.2C148.239 31.182 148.443 31.2108 148.633 31.284C148.822 31.3572 148.991 31.4727 149.127 31.6214C149.262 31.77 149.36 31.9476 149.412 32.1398C149.465 32.3321 149.47 32.5336 149.428 32.7283Z" fill="#1882FF"/>
<path d="M155.097 29.9866C154.969 31.3568 154.769 32.7197 154.499 34.0699C154.101 36.1583 153.681 38.2447 153.239 40.3291C152.948 41.4672 152.748 42.6257 152.642 43.7941C152.576 44.8616 148.902 44.6633 148.962 43.59C148.953 43.3206 148.971 43.0509 149.016 42.785C149.135 41.7058 149.434 40.6441 149.613 39.5825C150.063 37.5291 150.477 35.4719 150.856 33.4108C151.071 32.2441 151.262 31.1299 151.399 29.9808C151.411 28.9133 155.097 28.9133 155.097 29.9866ZM157.139 17.9408C157.078 19.1676 156.937 20.3893 156.715 21.5983C156.53 22.7649 156.303 23.9316 156.082 25.0983C155.879 26.1541 152.259 25.4891 152.462 24.4391C152.665 23.3891 152.898 22.1816 153.06 21.0499C153.245 20.0291 153.37 18.9988 153.436 17.9641C153.46 16.8674 157.139 16.8674 157.139 17.9408Z" fill="#1882FF"/>
<path d="M171.236 34.9099C171.045 35.2891 170.818 35.6449 170.609 36.0124C169.074 38.3458 166.995 39.9966 164.683 41.5483C163.121 42.5629 161.425 43.3656 159.642 43.9341C159.475 43.9749 159.308 44.0099 159.134 44.0391C158.663 47.0199 158.209 50.0066 157.904 53.0108C157.796 54.1774 157.737 55.3791 157.683 56.5633C157.635 57.6366 153.95 57.4791 153.997 56.4058C154.051 55.1516 154.117 53.9033 154.236 52.6549C154.595 49.1549 155.132 45.6549 155.694 42.2074C156.255 38.7599 156.93 35.3591 157.593 31.9466C157.916 30.3483 158.244 28.7441 158.692 27.1691C159.009 26.1424 162.539 27.1691 162.222 28.2074C161.972 29.1116 161.763 30.0216 161.565 30.9374C162.084 30.0572 162.683 29.2254 163.357 28.4524C164.282 27.4952 165.464 26.8119 166.768 26.4808C167.049 26.4224 167.33 26.4108 167.616 26.3758C168.344 26.3213 169.074 26.4448 169.74 26.735C170.407 27.0253 170.988 27.4732 171.433 28.0383C171.638 28.3721 171.819 28.719 171.977 29.0766C172.086 29.4484 172.171 29.8263 172.234 30.2083C172.376 31.8369 172.03 33.4708 171.236 34.9099ZM168.602 30.5058C168.715 30.1208 168.279 29.9749 167.963 29.9691C167.257 30.0214 166.598 30.3318 166.117 30.8383C165.288 31.7967 164.602 32.8651 164.08 34.0116C163.334 35.6099 162.659 37.2374 162.037 38.8824L162.635 38.5616C164.502 37.4327 166.125 35.9584 167.413 34.2216C168.082 33.0724 168.733 31.8766 168.602 30.5058Z" fill="#1882FF"/>
<path d="M69.77 33.3758L69.6685 33.2008C68.9549 31.8757 67.782 30.8419 66.3594 30.2841C65.7023 29.9283 64.3046 29.5841 59.7889 29.6016C56.5096 29.7066 55.6077 29.1408 55.4703 28.8783C55.4703 28.7629 55.4803 28.6478 55.5002 28.5341C55.8822 27.3201 56.5327 26.2029 57.4056 25.2616C59.5619 23.1733 60.5893 22.4149 61.0731 22.1466L61.1567 22.0941C62.9858 20.7938 64.9976 19.7583 67.1299 19.0199C66.9268 19.6033 66.216 20.7699 63.9701 23.3016C62.8591 24.2291 62.3275 24.7249 62.4529 25.4774C62.527 25.9901 62.8063 26.4532 63.2297 26.7649C63.653 27.0766 64.1857 27.2115 64.7108 27.1399L64.9855 27.1049C65.4933 27.0233 66.0965 26.7083 67.3748 25.4424L67.4465 25.3666C71.2992 20.7641 71.6277 19.0258 71.4425 18.0224L71.335 17.3924L71.2454 17.2291C71.0608 16.8336 70.7991 16.4769 70.4749 16.1791C69.7939 15.2399 68.0856 15.2399 67.1478 15.2399H66.9925L66.8372 15.2808C65.5861 15.5652 64.3804 16.0146 63.2533 16.6166C61.2109 17.5558 59.2783 18.7078 57.4892 20.0524L57.4295 20.0991C53.1109 23.5991 51.2114 26.5158 51.6296 29.0474C51.7833 29.8296 52.1602 30.5535 52.7167 31.1358C53.6067 32.1741 55.1537 32.8099 57.4295 33.0899H57.543C59.4305 33.1424 61.318 33.1599 63.1518 33.1366C64.7944 33.2358 65.7919 33.5974 66.1384 34.2041L66.21 34.6358C66.1472 35.061 65.9722 35.4631 65.7023 35.8024C65.0352 36.7365 64.1943 37.5399 63.2235 38.1708L60.882 39.7924C57.8391 41.4857 54.6586 42.9314 51.3727 44.1149C49.2702 44.8674 48.6549 45.2816 48.3384 45.7074L48.0576 46.0924L48.2308 47.1366L48.6012 47.4108C49.0494 47.7604 49.6045 47.9534 50.1781 47.9591C50.3054 47.9678 50.4331 47.9678 50.5604 47.9591L50.8411 47.9124L51.1398 47.8366C51.2311 47.8453 51.3232 47.8453 51.4145 47.8366H51.528L54.2876 46.7924H54.3593C65.6545 42.3066 70.6302 38.4683 70.009 34.7116L69.77 33.3758Z" fill="#1882FF"/>
<path d="M9.49911 41.0408C8.92939 41.1302 8.36947 41.2714 7.82663 41.4625C6.49497 38.9738 5.68668 36.25 5.44938 33.4516C5.21208 30.6532 5.55056 27.8367 6.44488 25.1679C7.3392 22.4992 8.77129 20.0322 10.6568 17.9122C12.5423 15.7923 14.8431 14.0622 17.4238 12.8239C20.0044 11.5856 22.8127 10.864 25.6832 10.7018C28.5537 10.5396 31.4284 10.94 34.1381 11.8794C36.8477 12.8187 39.3375 14.2781 41.4609 16.1715C43.5842 18.065 45.2981 20.3542 46.5016 22.9044L46.0411 22.9569L33.0065 20.6154C32.9618 20.6082 32.9161 20.6119 32.8732 20.6261C32.8304 20.6404 32.7918 20.6647 32.761 20.697C32.7307 20.7299 32.7098 20.7699 32.7004 20.8131C32.6909 20.8563 32.6933 20.9012 32.7072 20.9432L33.3953 23.2847C33.4108 23.3383 33.4437 23.3855 33.4891 23.4193C33.5344 23.453 33.5898 23.4715 33.6468 23.4719L41.1037 23.5128L39.7394 23.665L33.2579 24.7191C30.6634 25.3046 28.0384 25.7525 25.3943 26.0608C25.4905 25.9154 25.5746 25.7626 25.6457 25.604C25.8249 25.4693 26.0525 25.3287 26.3279 25.1589C27.1641 24.96 27.2913 24.4274 27.2913 24.1346V23.9707C27.2777 23.7551 27.1914 23.55 27.0458 23.3874L26.9981 23.329C26.9736 23.2975 26.9419 23.272 26.9055 23.2546C26.869 23.2373 26.8289 23.2286 26.7884 23.2293H26.7048C26.3623 23.2349 26.0229 23.294 25.6995 23.4043L25.3411 23.574C25.1022 23.2462 24.527 23.0298 23.4739 22.8659H23.3843C22.5252 22.9207 21.6787 23.0962 20.8708 23.3868C19.3511 23.8088 17.8855 24.398 16.502 25.1432C13.2467 27.0221 11.6638 28.7319 11.6638 30.3652C11.6809 30.8525 11.8384 31.3252 12.1183 31.729C12.5669 32.4547 13.4922 33.017 14.9789 33.4382C16.2834 33.6844 17.588 33.8949 18.8328 34.0764C20.2209 34.375 20.9933 34.8668 21.1306 35.5347C21.1111 35.5666 21.1008 35.6031 21.1008 35.6403V35.81C21.1008 35.9156 21.047 36.2184 20.5321 36.7877C19.9166 37.4069 19.1871 37.9074 18.3818 38.2629L16.6765 39.0534C14.3431 39.9097 11.941 40.5755 9.49493 41.0437L9.49911 41.0408ZM46.9562 23.9695C46.3656 24.2984 45.7252 24.5335 45.0591 24.666H45.0053C44.1912 24.7716 43.3717 24.8883 42.5516 25.0114L34.5744 27.3184C33.7304 29.1215 33.0065 30.7374 32.4199 32.1304L32.3721 32.212C32.3243 32.2879 32.1087 32.7038 30.8938 35.6368C30.5354 36.3683 30.2594 36.9948 30.0677 37.5034C30.0259 37.6201 29.864 37.9835 29.1221 39.6402L27.9275 42.3626C27.9153 42.3788 27.9053 42.3965 27.8976 42.4151C27.36 43.1058 27.0895 43.2289 26.8744 43.2522H26.8087C26.7732 43.2593 26.7367 43.2593 26.7012 43.2522C26.3428 43.1174 26.1803 42.9419 26.1803 42.7021C26.1803 41.9881 26.7777 40.3606 28.0356 37.5326C29.2935 34.7046 30.7086 31.2583 32.3088 27.3943V27.3476C32.4198 27.1589 32.5195 26.9642 32.6075 26.7643C29.3521 27.3476 27.3947 27.6976 26.7783 27.7559L25.7431 27.9024C25.6696 27.9048 25.5963 27.8929 25.5275 27.8674L25.1094 27.9024C24.7414 27.9101 24.3761 27.8403 24.0384 27.6976C23.5719 28.1777 23.0152 28.6928 22.351 29.2668C21.3182 30.0053 20.9419 30.1056 20.7024 30.1056H20.6014C19.9133 30.0239 19.5185 29.643 19.5185 29.0754C19.5185 28.8059 19.6738 28.6245 20.6737 28.0336C21.5354 27.3733 22.3365 26.6408 23.0677 25.8444C23.1786 25.4281 23.3947 25.0456 23.6961 24.7319C23.6523 24.7346 23.6085 24.7346 23.5647 24.7319C21.7917 24.9374 20.0698 25.4467 18.478 26.2364C17.4045 26.74 16.3893 27.3542 15.4496 28.0686C14.6842 28.6706 14.0701 29.4356 13.654 30.3051C13.6003 30.5099 13.5883 30.5921 13.5824 30.6213C13.5824 31.2046 14.777 31.7104 16.8198 31.9734C20.0632 32.4652 20.8415 32.863 21.1468 33.115C21.9891 33.603 22.6257 34.3682 22.9423 35.2734V36.1985C22.9423 38.6485 19.1661 40.6476 11.0557 42.4682L9.06307 42.8427H9.00334C8.94781 42.8521 8.89103 42.8521 8.83549 42.8427H8.64913C11.5142 47.2528 15.9562 50.4649 21.1114 51.8545C26.2667 53.2442 31.7669 52.7121 36.5428 50.3618C41.3186 48.0114 45.029 44.0106 46.9525 39.1373C48.8759 34.264 48.8751 28.8662 46.9502 23.9934L46.9562 23.9695Z" fill="#1882FF"/>
</svg>
